<svg class="twitter" width="18px" height="16px" viewBox="0 0 18 16" version="1.1" xmlns="http://www.w3.org/2000/svg" xmlns:xlink="http://www.w3.org/1999/xlink">
  <!-- Generator: Sketch 52.4 (67378) - http://www.bohemiancoding.com/sketch -->
  <title>twitter</title>
  <desc>Created with Sketch.</desc>
  <g id="Page-1" stroke="none" stroke-width="1" fill="none" fill-rule="evenodd">
    <g id="Perfects.Engineering-Light-Mode" transform="translate(-1042.000000, -79.000000)" fill="#021318">
      <g id="Social-Icons-Copy" transform="translate(1036.000000, 72.000000)">
        <g id="twitter">
          <g transform="translate(6.000000, 7.714286)" id="Path">
            <path d="M17.6938776,1.72503297 C17.0358865,2.01758242 16.3347666,2.21149451 15.6037883,2.30564835 C16.3557781,1.85057143 16.9297232,1.13545055 17.1995548,0.273494505 C16.4984349,0.697186813 15.7243278,0.996461538 14.8993508,1.16347253 C14.2336186,0.444989011 13.2847844,0 12.2496926,0 C10.2414375,0 8.62465944,1.65217582 8.62465944,3.6776044 C8.62465944,3.96903297 8.64898852,4.24925275 8.70870536,4.51602198 C5.6930051,4.36694505 3.02454719,2.90195604 1.23193622,0.670285714 C0.918975765,1.22063736 0.735401786,1.85057143 0.735401786,2.5287033 C0.735401786,3.80202198 1.38233418,4.93074725 2.34665051,5.58421978 C1.76385842,5.57301099 1.192125,5.40151648 0.707755102,5.13138462 C0.707755102,5.14259341 0.707755102,5.15716484 0.707755102,5.17173626 C0.707755102,6.95841758 1.96512628,8.44246154 3.61397449,8.78432967 C3.31870791,8.86615385 2.99690051,8.90538462 2.66292857,8.90538462 C2.43069643,8.90538462 2.19625255,8.89193407 1.97618495,8.84261538 C2.44617857,10.2986374 3.77985459,11.3690769 5.36566837,11.4038242 C4.13152041,12.3823516 2.56450638,12.9719341 0.868105867,12.9719341 C0.570627551,12.9719341 0.285313776,12.9584835 0,12.9214945 C1.60682526,13.9717582 3.51112883,14.5714286 5.56472449,14.5714286 C12.2397398,14.5714286 15.889102,8.96703297 15.889102,4.10914286 C15.889102,3.94661538 15.8835727,3.78969231 15.8758316,3.63389011 C16.5957513,3.11604396 17.2006607,2.4692967 17.6938776,1.72503297 Z"></path>
          </g>
        </g>
      </g>
    </g>
  </g>
</svg>